:SAMPLES-PER-SECOND 30
:FULLY-SPECIFIED
:DEGREES
59
root  -3.73082 40.8582 -0.787687 -3.51868 -69.4708 5.19037
RightUpLeg  2.98128 -3.17634 -0.880344
RightLeg  -1.02121 -36.7898 1.97702
RightFoot  -2.50252 -0.192237 2.17069
RightToes  -3.13588e-008 1.75238e-005 3.56266e-009
Spine  -0.758726 6.47118 6.97602
Spine1  1.24512 7.90449 -7.63081
HEad  -2.70845 -9.43273 2.83893
LeftShoulder1  1.80848 -2.73254 -22.7019
LeftArm  -29.5486 -24.0288 -51.8653
LeftForeArm  39.0464 -67.1779 -23.0727
LeftHand  -0.643733 -1.84346 10.5115
RightShoulder  2.69975 5.50981 23.8186
RightArm  -14.9176 9.86409 52.6144
RightForeArm  43.2994 74.3791 38.6521
RightHand  -0.266358 7.10187 -2.82474
LeftUpLeg  -1.65913 -0.629428 2.64573
LeftLeg  -2.16551 -2.46944 0.641257
LeftFoot  2.43755 0.633969 -5.36772
LeftToes  4.76812e-008 1.47286e-008 1.3089e-009
60
root  -3.80168 40.8451 -0.813427 -2.66309 -68.1454 4.3728
RightUpLeg  3.44651 -3.06816 -0.511959
RightLeg  -1.9667 -38.3617 2.6256
RightFoot  -2.38652 -0.18846 2.12089
RightToes  -3.13588e-008 1.75238e-005 3.56266e-009
Spine  -0.807524 6.64536 7.4486
Spine1  1.2563 8.18874 -8.3166
HEad  -2.77042 -9.08351 2.84042
LeftShoulder1  1.81167 -2.75907 -22.6263
LeftArm  -29.469 -23.8009 -52.1985
LeftForeArm  39.4986 -67.1806 -23.01
LeftHand  -0.571999 -2.28664 8.84325
RightShoulder  2.6869 5.45414 23.8569
RightArm  -15.0416 9.46609 53.1442
RightForeArm  42.7228 74.3983 38.8966
RightHand  -0.217573 6.84739 -2.41285
LeftUpLeg  -2.24304 -0.572495 2.85619
LeftLeg  -1.41819 -4.0133 0.736815
LeftFoot  2.17803 0.61428 -5.2927
LeftToes  4.76812e-008 1.47286e-008 1.3089e-009
61
root  -3.8742 40.8317 -0.856963 -1.93027 -66.4368 3.60608
RightUpLeg  4.03677 -3.02275 -0.140477
RightLeg  -3.02065 -40.1994 3.44356
RightFoot  -2.30306 -0.186501 2.09763
RightToes  -3.13588e-008 1.75238e-005 3.56266e-009
Spine  -0.968804 6.226 6.58539
Spine1  1.26233 7.66342 -7.63978
HEad  -3.03465 -8.3199 2.62976
LeftShoulder1  1.81516 -2.73832 -22.7871
LeftArm  -29.6817 -23.818 -52.1579
LeftForeArm  39.9012 -67.2062 -22.9857
LeftHand  -0.619941 -2.54805 9.24607
RightShoulder  2.83015 5.77958 24.3802
RightArm  -15.7886 8.38508 52.5809
RightForeArm  43.4387 74.6005 39.508
RightHand  -0.239399 6.70831 -2.63975
LeftUpLeg  -2.77766 -0.622235 3.01787
LeftLeg  -0.790721 -5.82211 0.914035
LeftFoot  2.03589 0.605782 -5.26977
LeftToes  4.76812e-008 1.47286e-008 1.3089e-009
62
root  -3.91918 40.8156 -0.893374 -1.41544 -64.5343 3.13824
RightUpLeg  4.39585 -2.97002 0.167262
RightLeg  -3.8161 -42.2189 4.08173
RightFoot  -2.3124 -0.191277 2.17719
RightToes  -3.13588e-008 1.75238e-005 3.56266e-009
Spine  -1.24018 5.52788 5.15217
Spine1  1.51976 6.761 -6.24817
HEad  -3.73226 -9.23171 2.96405
LeftShoulder1  1.86924 -2.81036 -23.3424
LeftArm  -29.6262 -24.3447 -51.3777
LeftForeArm  38.8351 -67.2402 -23.1908
LeftHand  -0.485639 -1.37958 8.48429
RightShoulder  2.8069 5.78196 24.106
RightArm  -16.8086 7.24157 52.0737
RightForeArm  43.4784 74.7371 40.081
RightHand  -0.270034 6.82139 -2.91343
LeftUpLeg  -3.29524 -0.773653 3.04671
LeftLeg  -0.484258 -7.6783 1.08003
LeftFoot  2.03234 0.610647 -5.31242
LeftToes  4.76812e-008 1.47286e-008 1.3089e-009
63
root  -3.9623 40.803 -0.933511 -1.01114 -62.4542 2.79739
RightUpLeg  4.72354 -2.97052 0.440996
RightLeg  -4.64048 -44.3697 4.80317
RightFoot  -2.32814 -0.190847 2.17432
RightToes  -3.13588e-008 1.75238e-005 3.56266e-009
Spine  -1.1309 4.69845 3.72389
Spine1  1.19552 5.76255 -5.20419
HEad  -4.42248 -8.68529 3.07623
LeftShoulder1  1.89624 -2.93146 -23.1941
LeftArm  -29.3539 -24.7794 -51.6589
LeftForeArm  38.7818 -67.1432 -23.0651
LeftHand  -0.603303 -1.84802 9.88045
RightShoulder  2.81825 5.77384 24.2624
RightArm  -17.9059 5.40169 50.8789
RightForeArm  44.0323 75.022 41.1677
RightHand  -0.260875 6.66097 -2.85737
LeftUpLeg  -3.73329 -0.900423 3.04258
LeftLeg  -0.459335 -9.67591 1.21142
LeftFoot  2.17813 0.622376 -5.36082
LeftToes  4.76812e-008 1.47286e-008 1.3089e-009
64
root  -3.99306 40.7952 -0.96605 -0.612091 -60.9864 2.57571
RightUpLeg  4.59684 -3.02004 0.599345
RightLeg  -4.68371 -45.8393 5.04576
RightFoot  -2.51949 -0.199279 2.30731
RightToes  -3.13588e-008 1.75238e-005 3.56266e-009
Spine  -1.29576 3.95815 2.38447
Spine1  1.24942 4.83615 -3.99445
HEad  -5.2586 -8.44215 2.827
LeftShoulder1  1.81359 -2.69551 -22.9711
LeftArm  -29.257 -25.0965 -52.2844
LeftForeArm  39.456 -67.1751 -23.009
LeftHand  -0.584783 -2.34283 8.91905
RightShoulder  2.84739 5.86393 24.2805
RightArm  -18.9575 4.35203 50.0328
RightForeArm  44.2839 74.933 40.6869
RightHand  -0.204776 6.95617 -2.27452
LeftUpLeg  -4.24309 -0.953936 3.07981
LeftLeg  -0.344943 -11.1111 1.25023
LeftFoot  2.27882 0.649478 -5.55293
LeftToes  4.76812e-008 1.47286e-008 1.3089e-009
65
root  -4.01724 40.7982 -0.982417 -0.588715 -60.1394 2.67682
RightUpLeg  4.60072 -2.99255 0.636479
RightLeg  -4.8858 -46.697 5.20025
RightFoot  -2.53928 -0.200428 2.32563
RightToes  -3.13588e-008 1.75238e-005 3.56266e-009
Spine  -0.768556 3.54552 1.0657
Spine1  0.422607 4.23458 -2.88104
HEad  -5.49803 -7.63528 2.2902
LeftShoulder1  1.88129 -2.91279 -23.037
LeftArm  -29.1586 -24.8704 -52.0891
LeftForeArm  39.1108 -67.2363 -23.1443
LeftHand  -0.445985 -1.68359 7.48158
RightShoulder  2.76471 5.62335 24.1712
RightArm  -19.067 3.44937 49.5685
RightForeArm  44.8056 75.103 41.2978
RightHand  -0.212348 6.87055 -2.35789
LeftUpLeg  -4.27913 -0.851223 3.0659
LeftLeg  -0.775746 -12.0159 1.16686
LeftFoot  2.57883 0.656197 -5.50082
LeftToes  4.76812e-008 1.47286e-008 1.3089e-009
66
root  -4.01654 40.8004 -0.967439 -0.618622 -60.0905 2.82617
RightUpLeg  4.50061 -3.0538 0.526623
RightLeg  -4.87282 -46.6874 5.2152
RightFoot  -2.57678 -0.193316 2.21413
RightToes  -3.13588e-008 1.75238e-005 3.56266e-009
Spine  -0.990539 3.34191 0.924859
Spine1  0.666064 4.09092 -3.15443
HEad  -5.92926 -7.2255 2.29921
LeftShoulder1  1.76866 -2.64762 -22.4442
LeftArm  -29.0607 -24.9287 -52.4787
LeftForeArm  39.205 -67.2177 -23.1047
LeftHand  -0.589822 -1.64437 9.90995
RightShoulder  2.88345 5.8614 24.6976
RightArm  -19.0712 3.13787 49.1815
RightForeArm  45.0269 75.2514 41.9275
RightHand  -0.257283 6.88497 -2.78111
LeftUpLeg  -4.21235 -0.88626 2.9825
LeftLeg  -1.12735 -11.9633 1.18848
LeftFoot  2.69682 0.661687 -5.5121
LeftToes  4.76812e-008 1.47286e-008 1.3089e-009
67
root  -4.00246 40.8079 -0.941665 -0.504303 -60.6074 2.78464
RightUpLeg  4.39083 -2.9806 0.503096
RightLeg  -4.88724 -46.2625 5.1874
RightFoot  -2.51584 -0.199045 2.30023
RightToes  -3.13588e-008 1.75238e-005 3.56266e-009
Spine  -1.08125 3.53893 1.08128
Spine1  0.737096 4.3015 -3.26496
HEad  -5.87107 -7.71063 2.19382
LeftShoulder1  1.80929 -2.6951 -22.8935
LeftArm  -28.9908 -24.9794 -52.1569
LeftForeArm  39.4797 -67.1683 -22.9959
LeftHand  -0.532124 -1.70172 8.87559
RightShoulder  2.86415 5.83549 24.5679
RightArm  -19.0132 3.28417 49.4331
RightForeArm  44.8201 75.2102 41.7989
RightHand  -0.242766 6.77967 -2.65882
LeftUpLeg  -4.16099 -0.791974 3.04601
LeftLeg  -1.24253 -11.5857 1.14905
LeftFoot  2.74057 0.658038 -5.47734
LeftToes  4.76812e-008 1.47286e-008 1.3089e-009
68
root  -3.98741 40.8158 -0.906298 -0.386047 -61.2076 2.7952
RightUpLeg  4.21235 -2.95966 0.427997
RightLeg  -4.79252 -45.632 5.09412
RightFoot  -2.47044 -0.197195 2.26708
RightToes  -3.13588e-008 1.75238e-005 3.56266e-009
Spine  -1.30395 3.74411 1.31108
Spine1  0.879467 4.54329 -3.49296
HEad  -5.9866 -6.94973 2.04831
LeftShoulder1  1.93161 -2.97873 -23.5496
LeftArm  -28.9645 -24.7447 -51.3705
LeftForeArm  39.4765 -67.2466 -23.1041
LeftHand  -0.63749 -2.09517 10.0865
RightShoulder  2.81741 5.78133 24.2273
RightArm  -18.9782 3.41818 50.2
RightForeArm  44.8348 75.0934 41.2426
RightHand  -0.192894 6.75424 -2.18699
LeftUpLeg  -4.19982 -0.735777 3.07683
LeftLeg  -1.23743 -11.0785 1.07704
LeftFoot  2.70616 0.650408 -5.40832
LeftToes  4.76812e-008 1.47286e-008 1.3089e-009
69
root  -3.97332 40.8209 -0.872768 -0.490265 -61.9003 2.94937
RightUpLeg  4.20074 -2.96712 0.291649
RightLeg  -4.93655 -44.9616 5.12976
RightFoot  -2.39366 -0.195682 2.23752
RightToes  -3.13588e-008 1.75238e-005 3.56266e-009
Spine  -1.30047 3.97487 1.60798
Spine1  0.806768 4.84718 -3.96087
HEad  -5.87415 -6.5433 2.31085
LeftShoulder1  1.92323 -2.96319 -23.4845
LeftArm  -28.529 -24.3389 -51.7971
LeftForeArm  39.6858 -67.4368 -23.3377
LeftHand  -0.644357 -2.04319 10.2475
RightShoulder  2.83987 5.83018 24.3129
RightArm  -18.3165 3.56464 50.1621
RightForeArm  44.5181 75.0021 40.9254
RightHand  -0.273288 6.86558 -2.93626
LeftUpLeg  -4.04913 -0.750686 3.02218
LeftLeg  -1.35941 -10.4179 1.06198
LeftFoot  2.67604 0.647146 -5.39452
LeftToes  4.76812e-008 1.47286e-008 1.3089e-009
70
root  -3.9636 40.8265 -0.84693 -0.399353 -62.3167 2.92606
RightUpLeg  4.30185 -2.78756 0.355709
RightLeg  -5.56011 -44.7909 5.40291
RightFoot  -2.13909 -0.193082 2.18947
RightToes  -3.13588e-008 1.75238e-005 3.56266e-009
Spine  -1.42543 4.03184 1.60209
Spine1  0.831797 4.9016 -3.9542
HEad  -6.07226 -6.49278 2.55998
LeftShoulder1  1.94287 -2.98954 -23.6761
LeftArm  -28.369 -24.0226 -51.822
LeftForeArm  39.4644 -67.6243 -23.6366
LeftHand  -0.604548 -1.6599 10.1226
RightShoulder  2.81429 5.76396 24.2493
RightArm  -17.9629 3.98295 50.4694
RightForeArm  43.709 74.8109 40.3244
RightHand  -0.251538 6.75168 -2.74956
LeftUpLeg  -4.04984 -0.691529 3.05523
LeftLeg  -1.35796 -10.0767 1.0027
LeftFoot  2.64632 0.62228 -5.20227
LeftToes  4.76812e-008 1.47286e-008 1.3089e-009
